<?xml version="1.0" standalone="no"?>
<!DOCTYPE svg PUBLIC "-//W3C//DTD SVG 20010904//EN"
 "http://www.w3.org/TR/2001/REC-SVG-20010904/DTD/svg10.dtd">
<svg version="1.0" xmlns="http://www.w3.org/2000/svg"
 width="976.000000pt" height="976.000000pt" viewBox="0 0 976.000000 976.000000"
 preserveAspectRatio="xMidYMid meet">
<metadata>
Created by potrace 1.11, written by Peter Selinger 2001-2013
</metadata>
<g transform="translate(0.000000,976.000000) scale(0.100000,-0.100000)"
fill="#000000" stroke="none">
<path d="M4400 6828 c0 -6 -20 -51 -44 -102 -79 -163 -177 -369 -216 -451 -20
-44 -70 -147 -109 -230 -40 -82 -91 -188 -113 -235 -92 -193 -153 -320 -196
-410 -26 -52 -47 -97 -48 -100 -4 -19 -49 -106 -58 -112 -6 -4 -8 -8 -4 -8 4
0 -5 -26 -21 -57 -16 -32 -52 -106 -80 -165 -79 -166 -147 -311 -216 -453 -61
-127 -97 -203 -212 -444 -30 -64 -80 -168 -111 -231 -146 -305 -169 -356 -165
-363 4 -6 363 -12 468 -7 11 0 69 1 130 3 l109 2 14 40 c8 22 17 47 20 55 3 8
6 20 8 25 8 29 57 173 65 190 5 11 11 29 14 40 2 11 29 85 59 165 55 142 64
164 92 225 7 17 18 43 24 58 l10 28 159 -2 160 -2 -13 -26 c-8 -14 -42 -84
-76 -156 -34 -71 -88 -184 -120 -250 -31 -66 -72 -151 -90 -190 -18 -38 -55
-114 -81 -169 -27 -54 -49 -104 -49 -112 0 -8 -4 -14 -10 -14 -5 0 -10 -4 -10
-9 0 -5 -32 -76 -71 -158 -74 -154 -112 -234 -114 -243 0 -3 -7 -16 -15 -30
-16 -28 -50 -100 -50 -106 0 -4 405 -7 475 -4 11 0 69 1 130 3 l109 2 14 40
c8 22 17 47 20 55 3 8 6 20 8 25 4 15 84 248 91 265 3 8 7 20 8 25 5 23 105
274 130 330 8 17 19 42 24 58 l11 27 204 0 205 0 22 -32 c38 -55 158 -168 178
-168 5 0 11 -4 13 -8 4 -11 120 -57 167 -67 29 -6 68 -11 117 -14 5 -1 21 -38
34 -83 28 -103 81 -225 122 -287 46 -69 149 -164 215 -199 141 -73 322 -93
508 -56 49 10 47 9 67 18 9 4 22 8 30 10 59 9 186 106 236 179 43 65 44 71 10
103 -35 33 -89 109 -92 129 -1 7 -7 19 -12 26 -26 33 -88 254 -98 350 -3 24
-8 58 -10 74 -8 49 -16 124 -22 220 -3 50 -7 101 -9 114 -6 37 -19 209 -19
263 -1 27 -4 48 -7 48 -3 0 -6 12 -6 28 0 28 -9 139 -18 227 -6 57 -13 140
-20 235 -2 36 -7 92 -10 125 -10 102 -14 148 -20 215 -3 36 -7 88 -10 115 -3
28 -7 79 -10 115 -2 36 -7 90 -10 120 -2 30 -7 82 -10 115 -2 33 -7 92 -11
130 -3 39 -7 90 -10 115 -3 25 -6 70 -9 100 -4 52 -14 169 -20 235 -2 17 -4
35 -4 41 -1 9 -81 12 -287 12 -157 1 -289 3 -292 7 -8 8 -11 28 -17 110 -10
131 -20 249 -30 350 -3 33 -8 80 -9 105 -2 25 -4 50 -5 57 -1 15 -1111 17
-1111 1z m226 -836 c1 -59 5 -165 8 -237 16 -323 16 -395 4 -418 -7 -12 -13
-24 -13 -27 -1 -3 -23 -50 -50 -105 -27 -55 -49 -102 -50 -105 -2 -16 -31 -70
-37 -70 -5 0 -8 -5 -8 -11 0 -12 -24 -66 -104 -230 l-61 -125 -165 2 c-91 1
-166 2 -167 3 -2 1 12 35 57 136 16 36 87 201 141 325 11 25 24 53 29 62 6 10
10 25 10 33 0 8 4 15 8 15 5 0 9 6 9 13 0 7 16 47 35 87 55 114 158 349 158
360 0 6 5 10 10 10 6 0 10 5 10 11 0 12 21 59 113 260 19 41 38 85 41 97 15
45 21 19 22 -86z m85 -1819 c0 -16 3 -37 5 -48 2 -11 7 -38 10 -61 l6 -41 -51
1 c-28 1 -51 6 -51 11 -1 17 64 165 73 165 4 0 7 -12 8 -27z"/>
</g>
</svg>
