<svg width="285.0300048828125px" height="122.021240234375px" xmlns="http://www.w3.org/2000/svg" viewBox="107.48499755859376 13.9893798828125 285.0300048828125 122.021240234375" style="background: rgb(60, 15, 15);" preserveAspectRatio="xMidYMid"><defs><filter id="editing-hover" x="-100%" y="-100%" width="300%" height="300%"><feFlood flood-color="#e46b43" result="flood"></feFlood><feComposite operator="in" in2="SourceAlpha" in="flood" result="shadow"></feComposite><feOffset dx="-4" dy="-4" in="SourceGraphic" result="offset-1"></feOffset><feOffset dx="4" dy="4" in="shadow" result="offset-2"></feOffset><feMerge><feMergeNode in="offset-2"></feMergeNode><feMergeNode in="offset-1"></feMergeNode></feMerge></filter></defs><g filter="url(#editing-hover)"><g transform="translate(155.0543727874756, 98.67218780517578)"><path d="M29.18 1.28L29.18 1.28L29.18 1.28Q20.99 1.28 20.22-10.37L20.22-10.37L9.22-10.37L9.22-10.37Q7.94-7.42 7.04-4.86L7.04-4.86L5.38 0L-3.58 0L16.58-42.24L30.34-42.24L33.02-11.14L33.02-11.14Q33.66-4.42 36.22-2.43L36.22-2.43L36.22-2.43Q34.37 1.28 29.18 1.28ZM14.72-23.17L11.20-15.04L20.03-15.04L19.26-31.49L19.26-33.22L14.72-23.17ZM60.10-33.92L60.10-33.92L60.10-33.92Q62.40-33.92 64.19-33.41L64.19-33.41L64.19-33.41Q64.26-33.66 64.38-34.37L64.38-34.37L64.70-36.35L64.70-36.35Q64.96-37.63 65.34-39.74L65.34-39.74L66.37-44.80L79.10-46.08L72-8.96L72-8.96Q71.94-8.58 71.94-7.94L71.94-7.94L71.94-6.91L71.94-6.91Q71.94-5.50 72.64-4.45L72.64-4.45L72.64-4.45Q73.34-3.39 74.50-3.39L74.50-3.39L74.50-3.39Q73.22-0.38 69.31 0.90L69.31 0.90L69.31 0.90Q67.97 1.28 66.08 1.28L66.08 1.28L66.08 1.28Q64.19 1.28 62.46 0.29L62.46 0.29L62.46 0.29Q60.74-0.70 60.22-2.37L60.22-2.37L60.22-2.37Q59.20-0.70 57.15 0.29L57.15 0.29L57.15 0.29Q55.10 1.28 52.13 1.28L52.13 1.28L52.13 1.28Q49.15 1.28 46.69 0.51L46.69 0.51L46.69 0.51Q44.22-0.26 42.69-1.92L42.69-1.92L42.69-1.92Q39.87-5.18 39.87-12.61L39.87-12.61L39.87-12.61Q39.87-22.21 45.50-28.03L45.50-28.03L45.50-28.03Q51.14-33.92 60.10-33.92ZM59.65-30.08L59.65-30.08L59.65-30.08Q57.28-30.08 56-27.52L56-27.52L56-27.52Q54.72-24.96 53.41-18.62L53.41-18.62L53.41-18.62Q52.10-12.29 52.10-6.59L52.10-6.59L52.10-6.59Q52.10-2.69 54.40-2.69L54.40-2.69L54.40-2.69Q56.45-2.69 57.89-4.74L57.89-4.74L57.89-4.74Q59.33-6.78 59.90-10.18L59.90-10.18L63.36-28.93L63.36-28.93Q62.02-30.08 59.65-30.08ZM112.13-7.10L112.13-7.10L112.13-7.10Q112.13-4.29 115.01-3.46L115.01-3.46L115.01-3.46Q114.30-1.09 111.55 0.19L111.55 0.19L111.55 0.19Q109.25 1.28 106.72 1.28L106.72 1.28L106.72 1.28Q104.19 1.28 102.88 0.61L102.88 0.61L102.88 0.61Q101.57-0.06 100.86-1.15L100.86-1.15L100.86-1.15Q99.71-2.82 99.71-5.95L99.71-5.95L99.71-5.95Q99.71-7.81 100.74-12.93L100.74-12.93L101.63-17.79L101.63-17.79Q102.72-23.36 102.72-25.41L102.72-25.41L102.72-25.41Q102.72-28.99 100.74-28.99L100.74-28.99L100.74-28.99Q98.24-28.99 96.64-25.34L96.64-25.34L96.64-25.34Q96-23.94 95.55-21.82L95.55-21.82L91.20 0L78.34 1.28L87.36-44.80L100.22-46.08L99.71-43.52L99.71-43.52Q97.92-33.66 96.38-30.34L96.38-30.34L96.38-30.34Q99.97-33.92 106.56-33.92L106.56-33.92L106.56-33.92Q113.54-33.92 114.82-29.31L114.82-29.31L114.82-29.31Q115.26-27.84 115.26-26.56L115.26-26.56L115.26-26.56Q115.26-25.28 115.17-24.29L115.17-24.29L115.17-24.29Q115.07-23.30 114.75-21.50L114.75-21.50L113.92-16.90L112.45-9.66L112.45-9.66Q112.13-8.19 112.13-7.10ZM134.14 1.28L134.14 1.28L134.14 1.28Q120.06 1.28 120.06-11.97L120.06-11.97L120.06-11.97Q120.06-21.38 125.25-27.46L125.25-27.46L125.25-27.46Q130.75-33.92 140.29-33.92L140.29-33.92L140.29-33.92Q147.20-33.92 150.72-30.72L150.72-30.72L150.72-30.72Q154.24-27.52 154.24-20.80L154.24-20.80L154.24-20.80Q154.24-10.56 148.74-4.61L148.74-4.61L148.74-4.61Q143.36 1.28 134.14 1.28ZM135.81-26.56L135.81-26.56L135.81-26.56Q135.04-24.83 134.43-22.24L134.43-22.24L134.43-22.24Q133.82-19.65 133.06-15.55L133.06-15.55L133.06-15.55Q132.29-11.46 132.29-6.40L132.29-6.40L132.29-6.40Q132.29-4.74 132.83-3.65L132.83-3.65L132.83-3.65Q133.38-2.56 134.85-2.56L134.85-2.56L134.85-2.56Q136.32-2.56 137.25-3.26L137.25-3.26L137.25-3.26Q138.18-3.97 138.88-5.63L138.88-5.63L138.88-5.63Q140.16-8.58 141.18-14.05L141.18-14.05L141.18-14.05Q142.21-19.52 142.30-21.89L142.30-21.89L142.30-21.89Q142.40-24.26 142.40-26.02L142.40-26.02L142.40-26.02Q142.40-27.78 141.89-28.93L141.89-28.93L141.89-28.93Q141.38-30.08 139.94-30.08L139.94-30.08L139.94-30.08Q138.50-30.08 137.54-29.18L137.54-29.18L137.54-29.18Q136.58-28.29 135.81-26.56ZM189.44-26.62L189.44-26.62L189.44-26.62Q189.44-23.94 187.20-22.27L187.20-22.27L187.20-22.27Q184.96-20.61 181.31-20.61L181.31-20.61L181.31-20.61Q179.78-20.61 178.88-21.06L178.88-21.06L178.88-21.06Q179.58-22.72 179.81-24.80L179.81-24.80L179.81-24.80Q180.03-26.88 180.03-27.46L180.03-27.46L180.03-27.46Q180.03-30.14 178.18-30.14L178.18-30.14L178.18-30.14Q176.90-30.14 175.46-28.54L175.46-28.54L175.46-28.54Q174.02-26.94 172.80-24.45L172.80-24.45L172.80-24.45Q170.11-18.69 170.11-12.86L170.11-12.86L170.11-12.86Q170.11-9.66 171.33-8.22L171.33-8.22L171.33-8.22Q172.54-6.78 175.23-6.78L175.23-6.78L175.23-6.78Q178.94-6.78 181.89-9.86L181.89-9.86L181.89-9.86Q182.72-10.82 183.17-11.90L183.17-11.90L183.17-11.90Q185.60-10.62 185.60-7.10L185.60-7.10L185.60-7.10Q185.60-3.52 181.63-1.15L181.63-1.15L181.63-1.15Q177.54 1.28 171.01 1.28L171.01 1.28L171.01 1.28Q158.02 1.28 158.02-12.48L158.02-12.48L158.02-12.48Q158.02-22.53 163.71-28.29L163.71-28.29L163.71-28.29Q169.22-33.92 179.33-33.92L179.33-33.92L179.33-33.92Q189.44-33.92 189.44-26.62Z" fill="#f91a10"></path></g></g><style>text {
  font-size: 64px;
  font-family: Arial Black;
  dominant-baseline: central;
  text-anchor: middle;
}</style></svg>